<svg id="visual" viewBox="0 0 900 600" width="900" height="600" xmlns="http://www.w3.org/2000/svg" xmlns:xlink="http://www.w3.org/1999/xlink" version="1.1"><rect x="0" y="0" width="900" height="600" fill="#03243d"></rect><path d="M464 600L466.5 566.7C469 533.3 474 466.7 471.3 400C468.7 333.3 458.3 266.7 452 200C445.7 133.3 443.3 66.7 442.2 33.3L441 0L900 0L900 33.3C900 66.7 900 133.3 900 200C900 266.7 900 333.3 900 400C900 466.7 900 533.3 900 566.7L900 600Z" fill="#715df2"></path><path d="M565 600L555.5 566.7C546 533.3 527 466.7 512.5 400C498 333.3 488 266.7 490.3 200C492.7 133.3 507.3 66.7 514.7 33.3L522 0L900 0L900 33.3C900 66.7 900 133.3 900 200C900 266.7 900 333.3 900 400C900 466.7 900 533.3 900 566.7L900 600Z" fill="#6b4bf8"></path><path d="M596 600L596.8 566.7C597.7 533.3 599.3 466.7 608.8 400C618.3 333.3 635.7 266.7 645.3 200C655 133.3 657 66.7 658 33.3L659 0L900 0L900 33.3C900 66.7 900 133.3 900 200C900 266.7 900 333.3 900 400C900 466.7 900 533.3 900 566.7L900 600Z" fill="#6733fc"></path><path d="M711 600L707 566.7C703 533.3 695 466.7 698.3 400C701.7 333.3 716.3 266.7 717.8 200C719.3 133.3 707.7 66.7 701.8 33.3L696 0L900 0L900 33.3C900 66.7 900 133.3 900 200C900 266.7 900 333.3 900 400C900 466.7 900 533.3 900 566.7L900 600Z" fill="#6600ff"></path></svg>